<svg xmlns="http://www.w3.org/2000/svg" version="1.1" xmlns:xlink="http://www.w3.org/1999/xlink" xmlns:svgjs="http://svgjs.dev/svgjs" width="1440" height="560" preserveAspectRatio="none" viewBox="0 0 1440 560">
    <g mask="url(&quot;#SvgjsMask1008&quot;)" fill="none">
        <rect width="1440" height="560" x="0" y="0" fill="url(&quot;#SvgjsLinearGradient1009&quot;)"></rect>
        <path d="M1440 0L997.4100000000001 0L1440 134.08z" fill="rgba(255, 255, 255, .1)"></path>
        <path d="M997.4100000000001 0L1440 134.08L1440 211.86L966.2700000000001 0z" fill="rgba(255, 255, 255, .075)"></path>
        <path d="M966.27 0L1440 211.86L1440 356.35L583.72 0z" fill="rgba(255, 255, 255, .05)"></path>
        <path d="M583.72 0L1440 356.35L1440 480L462.5 0z" fill="rgba(255, 255, 255, .025)"></path>
        <path d="M0 560L269.91 560L0 474.34000000000003z" fill="rgba(0, 0, 0, .1)"></path>
        <path d="M0 474.34000000000003L269.91 560L506.26 560L0 359.33000000000004z" fill="rgba(0, 0, 0, .075)"></path>
        <path d="M0 359.33L506.26 560L838.8199999999999 560L0 265.66999999999996z" fill="rgba(0, 0, 0, .05)"></path>
        <path d="M0 265.66999999999996L838.8199999999999 560L1217.32 560L0 207.32999999999996z" fill="rgba(0, 0, 0, .025)"></path>
    </g>
    <defs>
        <mask id="SvgjsMask1008">
            <rect width="1440" height="560" fill="#ffffff"></rect>
        </mask>
        <linearGradient x1="15.28%" y1="-39.29%" x2="84.72%" y2="139.29%" gradientUnits="userSpaceOnUse" id="SvgjsLinearGradient1009">
            <stop stop-color="#0e2a47" offset="0"></stop>
            <stop stop-color="rgba(45, 75, 194, 1)" offset="1"></stop>
        </linearGradient>
    </defs>
</svg>